<svg width="257" height="300" viewBox="0 0 257 300" fill="none" xmlns="http://www.w3.org/2000/svg">
<g clip-path="url(#clip0_44_433)">
<path d="M200.585 83.6694C200.585 50.7097 163.108 23.9933 117.326 23.9933C71.5433 23.9933 34.4155 50.7264 34.4155 83.686L58.1042 88.6673L82.1417 74.8027L105.481 88.6673L128.34 78.0405L152.859 88.6673L177.926 69.207L200.585 83.6694Z" fill="white" stroke="black" stroke-linecap="round" stroke-linejoin="round"/>
<path d="M59.3667 178.381L80.2313 195.749L107.624 186.799L124.801 198.605L149.337 182.25L177.926 185.371L200.236 170.876C200.236 203.835 163.108 230.568 117.326 230.568C71.5433 230.568 34.4155 203.852 34.4155 170.892L59.3667 178.397V178.381Z" fill="white" stroke="black" stroke-linecap="round" stroke-linejoin="round"/>
<path d="M97.2085 34.2548C97.2085 34.2548 104.269 41.3947 116.711 44.782C131.379 48.7836 142.543 47.5383 154.786 42.4242" stroke="black" stroke-linecap="round" stroke-linejoin="round"/>
<path d="M109.651 42.2913C117.242 46.7247 132.791 48.4017 142.459 46.2266C152.127 44.0514 138.273 37.4927 128.721 35.9817C119.186 34.4541 95.381 33.9725 109.634 42.2913H109.651Z" fill="black"/>
<path d="M52.3065 176.438L70.4302 146.334V137.102L57.8882 125.546L63.4698 117.409L60.679 108.161L45.4458 85.9276L58.1041 88.6673L82.1416 74.8027L105.465 88.6673L128.323 78.0405L152.859 88.6673L177.926 69.207L190.186 77.1605L176.73 96.7869L173.939 106.036L179.521 114.172L166.962 125.728V134.96L183.109 149.722L177.262 165.911L189.521 178.381L177.926 185.371L149.337 182.266L124.801 198.605L107.624 186.799L80.2146 195.766L59.3666 178.381L52.3065 176.438Z" fill="white" stroke="black" stroke-linecap="round" stroke-linejoin="round"/>
<path d="M70.4302 81.5441L87.8727 114.271V122.806L97.2086 141.668L82.3576 176.438L83.8194 194.587" stroke="black" stroke-linecap="round" stroke-linejoin="round"/>
<path d="M125.997 41.129C125.997 41.129 122.625 22.5487 138.14 0.830215" stroke="black" stroke-linecap="round" stroke-linejoin="round"/>
</g>
<defs>
<clipPath id="clip0_44_433">
<rect width="167" height="231" fill="white" transform="translate(34)"/>
</clipPath>
</defs>
</svg>
