<svg width="257" height="300" viewBox="0 0 257 300" fill="none" xmlns="http://www.w3.org/2000/svg">
<g clip-path="url(#clip0_44_392)">
<g clip-path="url(#clip1_44_392)">
<path d="M111.687 27.1899V32.47C111.687 32.47 99.1126 52.2612 95.3771 61.0614C91.355 70.5583 87.4069 81.4668 87.6196 98.3613C88.8955 100.47 89.663 100.9 89.663 100.9L87.6196 103.394V106.795L89.737 108.857L87.6196 110.828V114.147L89.4688 116.026L87.2405 118.235V187.16L89.9958 189.26L87.4531 191.781V196.291L89.9958 198.289L87.2405 200.388V216.219C87.2405 224.396 94.9703 231.922 102.229 232.252C109.487 232.582 113.749 230.831 113.749 230.831C113.749 230.831 117.106 232.289 124.179 232.289H133.287C140.36 232.289 143.716 230.831 143.716 230.831C143.716 230.831 147.979 232.582 155.237 232.252C162.495 231.922 170.225 224.405 170.225 216.219V200.388L167.47 198.289L170.012 196.291V191.781L167.47 189.26L170.225 187.16V118.235L167.997 116.026L169.846 114.147V110.828L167.729 108.857L169.846 106.795V103.394L167.803 100.9C167.803 100.9 168.561 100.47 169.846 98.3613C170.059 81.4668 166.11 70.5583 162.088 61.0614C158.353 52.2612 145.778 32.47 145.778 32.47V27.1899" fill="white"/>
<path d="M111.687 27.1899V32.47C111.687 32.47 99.1126 52.2612 95.3771 61.0614C91.355 70.5583 87.4069 81.4668 87.6196 98.3613C88.8955 100.47 89.663 100.9 89.663 100.9L87.6196 103.394V106.795L89.737 108.857L87.6196 110.828V114.147L89.4688 116.026L87.2405 118.235V187.16L89.9958 189.26L87.4531 191.781V196.291L89.9958 198.289L87.2405 200.388V216.219C87.2405 224.396 94.9703 231.922 102.229 232.252C109.487 232.582 113.749 230.831 113.749 230.831C113.749 230.831 117.106 232.289 124.179 232.289H133.287C140.36 232.289 143.716 230.831 143.716 230.831C143.716 230.831 147.979 232.582 155.237 232.252C162.495 231.922 170.225 224.405 170.225 216.219V200.388L167.47 198.289L170.012 196.291V191.781L167.47 189.26L170.225 187.16V118.235L167.997 116.026L169.846 114.147V110.828L167.729 108.857L169.846 106.795V103.394L167.803 100.9C167.803 100.9 168.561 100.47 169.846 98.3613C170.059 81.4668 166.11 70.5583 162.088 61.0614C158.353 52.2612 145.778 32.47 145.778 32.47V27.1899" stroke="black" stroke-linecap="round" stroke-linejoin="round"/>
<path d="M147.6 24.5774H109.468V27.1899H147.6V24.5774Z" fill="white" stroke="black" stroke-linecap="round" stroke-linejoin="round"/>
<path d="M113.065 0.00109863H143.994C145.981 0.00109863 147.6 1.6053 147.6 3.57617V21.9648H109.468V3.57617C109.468 1.6053 111.086 0.00109863 113.074 0.00109863H113.065Z" fill="white" stroke="black" stroke-linecap="round" stroke-linejoin="round"/>
<path d="M145.787 21.9648H111.428V24.5774H145.787V21.9648Z" fill="white" stroke="black" stroke-linecap="round" stroke-linejoin="round"/>
<path d="M112.843 5.21703H127.665H143.503" fill="white"/>
<path d="M112.843 5.21703H127.665H143.503" stroke="black" stroke-linecap="round" stroke-linejoin="round"/>
<path d="M116.727 8.37042V18.9948" stroke="black" stroke-linecap="round" stroke-linejoin="round"/>
<path d="M124.281 8.37042V18.9948" stroke="black" stroke-linecap="round" stroke-linejoin="round"/>
<path d="M133.268 8.37042V18.9948" stroke="black" stroke-linecap="round" stroke-linejoin="round"/>
<path d="M140.822 8.37042V18.9948" stroke="black" stroke-linecap="round" stroke-linejoin="round"/>
<path d="M170.225 121.984H87.2312V182.22H170.225V121.984Z" fill="white" stroke="black" stroke-linecap="round" stroke-linejoin="round"/>
<path d="M106.398 229.713C106.398 229.713 104.226 228.961 104.725 227.394C105.391 225.313 109.903 225.569 115.081 222.425C120.259 219.281 124.059 220.317 126.86 223.085C128.534 224.744 129.995 224.744 131.678 223.085C134.433 220.271 138.279 219.272 143.457 222.425C148.635 225.569 152.648 225.533 153.813 227.394C154.673 228.769 152.139 229.713 152.139 229.713" fill="white"/>
<path d="M106.398 229.713C106.398 229.713 104.226 228.961 104.725 227.394C105.391 225.313 109.903 225.569 115.081 222.425C120.259 219.281 124.059 220.317 126.86 223.085C128.534 224.744 129.995 224.744 131.678 223.085C134.433 220.271 138.279 219.272 143.457 222.425C148.635 225.569 152.648 225.533 153.813 227.394C154.673 228.769 152.139 229.713 152.139 229.713" stroke="black" stroke-linecap="round" stroke-linejoin="round"/>
</g>
</g>
<defs>
<clipPath id="clip0_44_392">
<rect width="257" height="300" fill="white"/>
</clipPath>
<clipPath id="clip1_44_392">
<rect width="83.4561" height="232.737" fill="white" transform="translate(87 -0.228073)"/>
</clipPath>
</defs>
</svg>
