<svg width="257" height="300" viewBox="0 0 257 300" fill="none" xmlns="http://www.w3.org/2000/svg">
<g clip-path="url(#clip0_44_453)">
<g clip-path="url(#clip1_44_453)">
<path d="M109.303 185.467L94.539 212.508C88.8209 222.981 75.5501 226.851 65.0373 221.111L32.4623 203.326C21.9495 197.586 18.0292 184.33 23.7473 173.857L54.5981 117.352L61.0336 141.116L70.4379 138.373L71.4938 146.08L86.6763 142.743L94.5363 163.157L103.591 161.73L109.294 185.462L109.303 185.467Z" fill="white" stroke="black" stroke-linecap="round" stroke-linejoin="round"/>
<path d="M78.6252 88.4162L113.339 50.7473C124.944 38.1503 144.815 37.3501 157.47 48.9811L171.638 61.984C183.855 73.1974 184.679 92.3199 173.481 104.475L128.231 153.569L115.262 167.639L114.767 143.05L104.976 143.446L105.814 135.718L90.2569 135.291L87.5676 113.608L72.603 108.083L78.6252 88.4162Z" fill="white" stroke="black" stroke-linecap="round" stroke-linejoin="round"/>
<path d="M205.927 27.6893L174.997 65.0156C174.997 65.0156 174.968 65.0239 174.953 65.0513C173.626 66.391 168.222 63.6181 162.794 58.8158C157.288 53.9826 153.856 48.8823 155.115 47.4701C155.223 47.3389 155.357 47.2461 155.536 47.2015C155.546 47.1832 155.579 47.1658 155.608 47.1576L192.061 15.5278L205.918 27.6843L205.927 27.6893Z" fill="white" stroke="black" stroke-linecap="round" stroke-linejoin="round"/>
<path d="M174.996 65.0158L174.976 65.0527L174.958 65.0426C174.968 65.0241 174.986 65.0342 175.001 65.0066L174.996 65.0158Z" fill="white" stroke="black" stroke-linecap="round" stroke-linejoin="round"/>
<path d="M208.826 26.1586L193.323 12.2843C193.034 12.0264 192.592 12.0498 192.335 12.3365L191.249 13.5453C190.992 13.832 191.017 14.2735 191.305 14.5314L206.808 28.4057C207.096 28.6635 207.539 28.6401 207.796 28.3534L208.882 27.1446C209.139 26.8579 209.114 26.4164 208.826 26.1586Z" fill="white" stroke="black" stroke-linecap="round" stroke-linejoin="round"/>
<path d="M211.046 23.7039L195.542 9.82957C195.254 9.57172 194.812 9.59512 194.554 9.88185L193.469 11.0906C193.211 11.3774 193.236 11.8188 193.524 12.0767L209.028 25.951C209.316 26.2089 209.758 26.1854 210.016 25.8987L211.101 24.6899C211.359 24.4032 211.334 23.9617 211.046 23.7039Z" fill="white" stroke="black" stroke-linecap="round" stroke-linejoin="round"/>
<path d="M218.439 15.8846L202.936 2.01027C202.648 1.75241 202.205 1.77582 201.948 2.06254L195.727 8.98987C195.47 9.27659 195.495 9.71806 195.783 9.97592L211.287 23.8502C211.575 24.1081 212.017 24.0847 212.275 23.7979L218.495 16.8706C218.752 16.5839 218.728 16.1424 218.439 15.8846Z" fill="white" stroke="black" stroke-linecap="round" stroke-linejoin="round"/>
<path d="M23.5826 186.306C28.3389 187.017 32.407 183.034 37.3193 182.477C42.2316 181.921 44.4701 183.273 47.5983 184.981L71.8805 198.239C75.0086 199.947 77.3569 201.099 79.5449 205.532C81.7328 209.965 80.5818 215.541 83.7514 219.158" fill="white"/>
<path d="M23.5826 186.306C28.3389 187.017 32.407 183.034 37.3193 182.477C42.2316 181.921 44.4701 183.273 47.5983 184.981L71.8805 198.239C75.0086 199.947 77.3569 201.099 79.5449 205.532C81.7328 209.965 80.5818 215.541 83.7514 219.158" stroke="black" stroke-linecap="round" stroke-linejoin="round"/>
<path d="M46.9224 188.183C46.9224 188.183 49.1441 192.314 57.2168 196.722C65.2895 201.129 69.6909 200.614 69.6909 200.614" fill="white"/>
<path d="M46.9224 188.183C46.9224 188.183 49.1441 192.314 57.2168 196.722C65.2895 201.129 69.6909 200.614 69.6909 200.614" stroke="black" stroke-linecap="round" stroke-linejoin="round"/>
</g>
</g>
<defs>
<clipPath id="clip0_44_453">
<rect width="257" height="300" fill="white"/>
</clipPath>
<clipPath id="clip1_44_453">
<rect width="99.5841" height="258.919" fill="white" transform="translate(137.077 -34.2566) rotate(28.6339)"/>
</clipPath>
</defs>
</svg>
