<svg width="209" height="140" viewBox="0 0 209 140" fill="none" xmlns="http://www.w3.org/2000/svg">
<rect x="1.5" y="0.5" width="207" height="122" fill="#E75B34" stroke="black" stroke-linejoin="round"/>
<rect x="24.5" y="22.5" width="161" height="100" fill="#FF6E45" stroke="black"/>
<g clip-path="url(#clip0_47_475)">
<path fill-rule="evenodd" clip-rule="evenodd" d="M94.4523 41.2723C93.5905 41.9952 92.8006 42.8048 92.0953 43.6882L96.3219 48.0204L98.6789 45.6044L94.4523 41.2723ZM92.0952 65.3117C92.8005 66.1951 93.5904 67.0048 94.4523 67.7276L99.5122 62.5413L97.1552 60.1254L92.0952 65.3117ZM115.548 67.7275C116.41 67.0047 117.2 66.1949 117.905 65.3115L112.845 60.1254L110.488 62.5413L115.548 67.7275ZM117.905 43.6884C117.2 42.805 116.41 41.9954 115.548 41.2725L111.321 45.6044L113.678 48.0204L117.905 43.6884ZM105 34C93.9543 34 85 43.1782 85 54.5C85 65.8218 93.9543 75 105 75C116.046 75 125 65.8218 125 54.5C125 43.1782 116.046 34 105 34ZM111.667 52.7917C111.667 49.0333 108.667 45.9583 105 45.9583C101.333 45.9583 98.3333 49.0333 98.3333 52.7917L98.3333 56.2083L101.667 57.9167L101.667 61.3333H108.333L108.333 57.9167L111.667 56.2083L111.667 52.7917ZM103.333 52.7917C103.333 53.7352 102.587 54.5 101.667 54.5C100.746 54.5 100 53.7352 100 52.7917C100 51.8482 100.746 51.0833 101.667 51.0833C102.587 51.0833 103.333 51.8482 103.333 52.7917ZM108.333 54.5C109.254 54.5 110 53.7352 110 52.7917C110 51.8482 109.254 51.0833 108.333 51.0833C107.413 51.0833 106.667 51.8482 106.667 52.7917C106.667 53.7352 107.413 54.5 108.333 54.5Z" fill="black"/>
</g>
<path d="M2 122.5C1.79588 122.5 1.61226 122.624 1.53611 122.813C1.45995 123.003 1.50655 123.219 1.65384 123.361L18.33 139.361C18.4231 139.45 18.5472 139.5 18.6762 139.5H192.305C192.439 139.5 192.568 139.446 192.662 139.35L208.357 123.35C208.498 123.206 208.539 122.992 208.461 122.806C208.383 122.621 208.201 122.5 208 122.5H2Z" fill="#FF6E45" stroke="black" stroke-linejoin="round"/>
<path d="M185 23L208 1" stroke="black"/>
<path d="M25 22L1 1" stroke="black"/>
<path d="M60.296 92.2987V101.227C60.296 102.984 59.7815 104.251 58.7526 105.026C57.7236 105.802 56.2197 106.19 54.2409 106.19C52.2462 106.19 50.7344 105.818 49.7054 105.074C48.6764 104.314 48.1619 103.056 48.1619 101.298V100.562C48.1619 99.834 48.3044 99.2245 48.5894 98.7338C48.8743 98.243 49.183 97.8156 49.5154 97.4515C49.8479 97.0874 50.1566 96.755 50.4415 96.4542C50.7265 96.1376 50.8689 95.7972 50.8689 95.4331C50.8689 95.1165 50.774 94.9186 50.584 94.8395C50.394 94.7445 50.0458 94.697 49.5392 94.697H48.4944V92.2987H50.0616C50.679 92.2987 51.241 92.3303 51.7475 92.3936C52.2541 92.4411 52.6895 92.5599 53.0536 92.7498C53.4177 92.924 53.6947 93.1931 53.8847 93.5572C54.0905 93.9055 54.1934 94.3725 54.1934 94.9582C54.1934 95.4331 54.0509 95.8843 53.7659 96.3117C53.4968 96.7391 53.1881 97.1745 52.8399 97.6177C52.5074 98.0452 52.1987 98.4963 51.9138 98.9712C51.6446 99.4303 51.5101 99.929 51.5101 100.467C51.5101 100.958 51.5497 101.393 51.6288 101.773C51.708 102.153 51.8425 102.478 52.0325 102.747C52.2383 103 52.5153 103.198 52.8636 103.34C53.2277 103.467 53.6868 103.53 54.2409 103.53C54.7791 103.53 55.2223 103.459 55.5706 103.317C55.9347 103.174 56.2118 102.968 56.4017 102.699C56.6075 102.43 56.75 102.106 56.8291 101.726C56.9083 101.33 56.9479 100.887 56.9479 100.396V92.2987H60.296ZM74.8966 92.2987V100.847C74.8966 102.668 74.3742 104.013 73.3293 104.884C72.3004 105.755 70.7331 106.19 68.6277 106.19C66.5064 106.19 64.9154 105.818 63.8548 105.074C62.7941 104.314 62.2638 103.253 62.2638 101.892C62.2638 100.974 62.4696 100.261 62.8812 99.7548C63.2928 99.2483 63.8864 98.8604 64.6621 98.5913C63.9497 98.338 63.3878 97.9739 62.9762 97.499C62.5804 97.0241 62.3746 96.4304 62.3588 95.7181C62.3271 94.9107 62.4538 94.2537 62.7387 93.7472C63.0395 93.2247 63.459 92.8369 63.9972 92.5836C64.5355 92.3303 65.1766 92.1958 65.9206 92.1799C66.6647 92.1483 67.48 92.2116 68.3665 92.3699V94.7682C67.4008 94.6416 66.6963 94.6812 66.2531 94.887C65.8098 95.0769 65.5882 95.4727 65.5882 96.0742C65.5882 96.375 65.6674 96.6204 65.8257 96.8104C65.9998 97.0003 66.2135 97.1507 66.4668 97.2615C66.7359 97.3724 67.0288 97.4515 67.3454 97.499C67.6778 97.5465 68.0024 97.5702 68.319 97.5702H69.0788V99.7074H68.4852C68.1528 99.7074 67.8124 99.7311 67.4641 99.7786C67.1317 99.8261 66.823 99.9132 66.538 100.04C66.2531 100.166 66.0235 100.341 65.8494 100.562C65.6753 100.768 65.5882 101.037 65.5882 101.37C65.5882 102.019 65.8177 102.541 66.2768 102.937C66.7517 103.333 67.5354 103.53 68.6277 103.53C69.7358 103.53 70.5036 103.253 70.931 102.699C71.3743 102.129 71.5959 101.306 71.5959 100.23V92.2987H74.8966ZM83.8543 102.367V104.694H80.6961C79.7621 104.694 79.0181 104.591 78.464 104.385C77.9099 104.164 77.4904 103.879 77.2055 103.53C76.9205 103.166 76.7464 102.755 76.6831 102.296C76.6356 101.837 76.6435 101.362 76.7068 100.871H79.4138C79.3663 101.441 79.4613 101.837 79.6988 102.058C79.9362 102.264 80.427 102.367 81.171 102.367H83.8543ZM83.8543 95.5993V97.9739H80.6961C79.7621 97.9739 79.0181 97.8631 78.464 97.6415C77.9099 97.4198 77.4904 97.127 77.2055 96.7629C76.9205 96.3988 76.7464 95.9872 76.6831 95.5281C76.6356 95.069 76.6435 94.5941 76.7068 94.1033H79.4138C79.3663 94.6891 79.4613 95.0848 79.6988 95.2906C79.9362 95.4964 80.427 95.5993 81.171 95.5993H83.8543ZM91.95 92.2037C92.8998 92.2037 93.7784 92.362 94.5857 92.6786C95.3931 92.9952 96.0896 93.4543 96.6754 94.0559C97.2611 94.6416 97.7123 95.3698 98.0289 96.2405C98.3613 97.0953 98.5275 98.0689 98.5275 99.1612C98.5275 100.238 98.3772 101.211 98.0764 102.082C97.7756 102.953 97.3482 103.697 96.7941 104.314C96.24 104.916 95.5514 105.383 94.7282 105.715C93.9209 106.032 93.0106 106.19 91.9974 106.19C90.8735 106.19 89.8762 105.984 89.0055 105.573C88.1348 105.161 87.4303 104.607 86.8921 103.91C86.3697 103.198 86.0214 102.375 85.8473 101.441C85.689 100.507 85.7523 99.5174 86.0372 98.4726H91.2138V100.681H88.9105C88.8788 101.029 88.9342 101.377 89.0767 101.726C89.235 102.058 89.4487 102.359 89.7179 102.628C90.0028 102.897 90.3352 103.119 90.7152 103.293C91.0951 103.451 91.5067 103.53 91.95 103.53C92.5673 103.53 93.0898 103.412 93.5172 103.174C93.9446 102.937 94.2929 102.62 94.562 102.224C94.8311 101.813 95.0211 101.346 95.1319 100.823C95.2585 100.285 95.3219 99.7232 95.3219 99.1375C95.3219 98.4567 95.2348 97.8552 95.0607 97.3328C94.8865 96.7945 94.6412 96.3513 94.3245 96.003C94.0238 95.6389 93.6676 95.3698 93.256 95.1957C92.8444 95.0057 92.4011 94.9107 91.9262 94.9107C91.3088 94.9107 90.731 95.069 90.1928 95.3856C89.6704 95.6864 89.2983 96.1376 89.0767 96.7391H85.9423C86.0372 96.0268 86.2589 95.3935 86.6071 94.8395C86.9713 94.2854 87.4224 93.8105 87.9607 93.4147C88.5147 93.019 89.1321 92.7182 89.8128 92.5124C90.4935 92.3066 91.2059 92.2037 91.95 92.2037ZM99.6542 88.3094V90.5415H93.1953C92.2613 90.5415 91.5173 90.4465 90.9632 90.2565C90.4091 90.0507 89.9896 89.7895 89.7047 89.4729C89.4197 89.1405 89.2535 88.7605 89.206 88.3331C89.1427 87.8899 89.1348 87.4308 89.1823 86.9559H92.008C91.9764 87.5099 92.0793 87.8819 92.3167 88.0719C92.5383 88.246 93.0212 88.3252 93.7652 88.3094H99.6542ZM113.094 106H109.865V103.53H109.794C109.509 104.385 108.963 105.042 108.155 105.501C107.364 105.96 106.327 106.19 105.044 106.19C104.38 106.19 103.762 106.087 103.192 105.881C102.622 105.675 102.124 105.375 101.696 104.979C101.285 104.567 100.952 104.077 100.699 103.507C100.462 102.921 100.343 102.248 100.343 101.488V92.2987H103.643V100.61C103.643 101.639 103.905 102.383 104.427 102.842C104.965 103.301 105.678 103.53 106.564 103.53C107.055 103.53 107.498 103.443 107.894 103.269C108.29 103.079 108.63 102.834 108.915 102.533C109.2 102.232 109.414 101.884 109.556 101.488C109.714 101.077 109.794 100.649 109.794 100.206V92.2987H113.094V106ZM124.445 92.2037C125.221 92.2037 125.854 92.2987 126.344 92.4886C126.835 92.6628 127.215 92.9319 127.484 93.296C127.769 93.6443 127.959 94.0875 128.054 94.6258C128.149 95.1482 128.197 95.7656 128.197 96.4779V106H124.872V96.4067C124.872 96.2167 124.864 96.0347 124.848 95.8605C124.833 95.6706 124.785 95.5043 124.706 95.3619C124.643 95.2194 124.54 95.1086 124.397 95.0294C124.255 94.9344 124.057 94.887 123.804 94.887C123.487 94.887 123.25 95.0136 123.091 95.2669C122.933 95.5202 122.814 95.8685 122.735 96.3117H120.883C120.788 95.8368 120.653 95.4806 120.479 95.2431C120.305 95.0057 120.06 94.887 119.743 94.887C119.379 94.887 119.094 95.0136 118.888 95.2669C118.698 95.5043 118.556 95.821 118.461 96.2167C118.366 96.6125 118.303 97.0637 118.271 97.5702C118.255 98.061 118.247 98.5596 118.247 99.0662C118.247 99.6678 118.295 100.23 118.39 100.752C118.485 101.275 118.651 101.742 118.888 102.153C119.126 102.549 119.442 102.873 119.838 103.127C120.25 103.364 120.756 103.499 121.358 103.53C121.516 103.562 121.682 103.57 121.857 103.554C122.031 103.538 122.205 103.523 122.379 103.507V105.976C122.141 106.008 121.896 106.032 121.643 106.047C121.405 106.079 121.16 106.095 120.907 106.095C120.004 106.095 119.181 105.968 118.437 105.715C117.709 105.446 117.084 105.034 116.561 104.48C116.039 103.926 115.635 103.222 115.35 102.367C115.065 101.512 114.923 100.499 114.923 99.3274C114.923 98.2826 114.97 97.3249 115.065 96.4542C115.176 95.5677 115.382 94.8157 115.683 94.1983C115.999 93.5651 116.427 93.0744 116.965 92.7261C117.503 92.3778 118.215 92.2037 119.102 92.2037C119.878 92.2037 120.471 92.3699 120.883 92.7023C121.31 93.019 121.611 93.5097 121.785 94.1746C121.928 93.5097 122.205 93.019 122.616 92.7023C123.044 92.3699 123.653 92.2037 124.445 92.2037ZM137.475 98.2826C137.966 98.4567 138.457 98.6467 138.947 98.8525C139.438 99.0425 139.873 99.2958 140.253 99.6124C140.633 99.9132 140.934 100.293 141.156 100.752C141.377 101.211 141.464 101.773 141.417 102.438C141.369 103.151 141.164 103.744 140.8 104.219C140.451 104.694 140 105.082 139.446 105.383C138.908 105.668 138.306 105.873 137.641 106C136.992 106.127 136.343 106.19 135.694 106.19C135.014 106.19 134.341 106.111 133.676 105.953C133.011 105.778 132.417 105.517 131.895 105.169C131.372 104.821 130.937 104.377 130.589 103.839C130.256 103.301 130.074 102.668 130.043 101.939H133.035C133.177 102.462 133.502 102.873 134.008 103.174C134.531 103.459 135.101 103.602 135.718 103.602C136.05 103.602 136.367 103.578 136.668 103.53C136.984 103.467 137.261 103.372 137.499 103.245C137.736 103.103 137.926 102.937 138.069 102.747C138.211 102.541 138.283 102.296 138.283 102.011C138.283 101.567 137.974 101.227 137.356 100.99C136.755 100.736 135.845 100.475 134.626 100.206C134.024 100.064 133.454 99.9052 132.916 99.7311C132.394 99.5411 131.927 99.2958 131.515 98.995C131.119 98.6942 130.803 98.3301 130.565 97.9027C130.343 97.4594 130.233 96.9291 130.233 96.3117C130.233 95.631 130.399 95.0373 130.731 94.5308C131.064 94.0084 131.491 93.573 132.014 93.2247C132.552 92.8765 133.153 92.6232 133.818 92.4649C134.483 92.2907 135.148 92.2037 135.813 92.2037C136.462 92.2037 137.111 92.2828 137.76 92.4411C138.425 92.5994 139.019 92.8527 139.541 93.201C140.063 93.5334 140.491 93.9688 140.823 94.507C141.172 95.0453 141.346 95.6864 141.346 96.4304H138.401C138.306 95.8764 138.005 95.4727 137.499 95.2194C137.008 94.9503 136.446 94.8157 135.813 94.8157C135.528 94.8157 135.243 94.8474 134.958 94.9107C134.673 94.974 134.42 95.069 134.198 95.1957C133.977 95.3223 133.795 95.4806 133.652 95.6706C133.51 95.8447 133.438 96.0505 133.438 96.288C133.438 96.5729 133.557 96.8104 133.795 97.0003C134.032 97.1903 134.341 97.3565 134.721 97.499C135.101 97.6256 135.528 97.7523 136.003 97.8789C136.494 97.9897 136.984 98.1243 137.475 98.2826ZM149.035 106V96.9054C149.035 96.2088 148.806 95.7022 148.347 95.3856C147.903 95.069 147.326 94.9028 146.613 94.887C145.98 94.8553 145.371 94.9107 144.785 95.0532C144.199 95.1957 143.566 95.3777 142.885 95.5993V93.106C143.597 92.7894 144.31 92.5599 145.022 92.4174C145.75 92.2749 146.542 92.2037 147.397 92.2037C148.078 92.2037 148.719 92.2828 149.32 92.4411C149.938 92.5836 150.468 92.8211 150.911 93.1535C151.37 93.4701 151.726 93.8817 151.98 94.3883C152.249 94.8949 152.383 95.4964 152.383 96.193V106H149.035ZM167.051 92.2987V100.847C167.051 102.668 166.528 104.013 165.484 104.884C164.455 105.755 162.887 106.19 160.782 106.19C158.661 106.19 157.07 105.818 156.009 105.074C154.948 104.314 154.418 103.253 154.418 101.892C154.418 100.974 154.624 100.261 155.035 99.7548C155.447 99.2483 156.041 98.8604 156.816 98.5913C156.104 98.338 155.542 97.9739 155.13 97.499C154.735 97.0241 154.529 96.4304 154.513 95.7181C154.481 94.9107 154.608 94.2537 154.893 93.7472C155.194 93.2247 155.613 92.8369 156.151 92.5836C156.69 92.3303 157.331 92.1958 158.075 92.1799C158.819 92.1483 159.634 92.2116 160.521 92.3699V94.7682C159.555 94.6416 158.851 94.6812 158.407 94.887C157.964 95.0769 157.742 95.4727 157.742 96.0742C157.742 96.375 157.822 96.6204 157.98 96.8104C158.154 97.0003 158.368 97.1507 158.621 97.2615C158.89 97.3724 159.183 97.4515 159.5 97.499C159.832 97.5465 160.157 97.5702 160.473 97.5702H161.233V99.7074H160.639C160.307 99.7074 159.967 99.7311 159.618 99.7786C159.286 99.8261 158.977 99.9132 158.692 100.04C158.407 100.166 158.178 100.341 158.004 100.562C157.829 100.768 157.742 101.037 157.742 101.37C157.742 102.019 157.972 102.541 158.431 102.937C158.906 103.333 159.69 103.53 160.782 103.53C161.89 103.53 162.658 103.253 163.085 102.699C163.528 102.129 163.75 101.306 163.75 100.23V92.2987H167.051Z" fill="black"/>
<defs>
<clipPath id="clip0_47_475">
<rect width="40" height="41" fill="white" transform="translate(85 34)"/>
</clipPath>
</defs>
</svg>
