<svg width="209" height="141" viewBox="0 0 209 141" fill="none" xmlns="http://www.w3.org/2000/svg">
<rect x="1.5" y="0.5" width="207" height="122" fill="#19B07C" stroke="black" stroke-linejoin="round"/>
<path d="M2 122.5C1.79864 122.5 1.61693 122.621 1.53899 122.806C1.46104 122.992 1.50206 123.206 1.64306 123.35L18.3193 140.35C18.4133 140.446 18.5419 140.5 18.6762 140.5H192.305C192.444 140.5 192.577 140.442 192.672 140.339L208.367 123.339C208.502 123.193 208.538 122.981 208.458 122.799C208.378 122.618 208.199 122.5 208 122.5H2Z" fill="#28D197" stroke="black" stroke-linejoin="round"/>
<rect x="24.5" y="22.5" width="161" height="100" fill="#28D197" stroke="black"/>
<path d="M185 23L208 1" stroke="black"/>
<path d="M25 23L1 1" stroke="black"/>
<path d="M72.3969 89.2987V98.2271C72.3969 99.9843 71.8824 101.251 70.8534 102.026C69.8244 102.802 68.3205 103.19 66.3417 103.19C64.347 103.19 62.8352 102.818 61.8062 102.074C60.7772 101.314 60.2627 100.056 60.2627 98.2983V97.5622C60.2627 96.834 60.4052 96.2245 60.6902 95.7338C60.9751 95.243 61.2838 94.8156 61.6163 94.4515C61.9487 94.0874 62.2574 93.755 62.5423 93.4542C62.8273 93.1376 62.9698 92.7972 62.9698 92.4331C62.9698 92.1165 62.8748 91.9186 62.6848 91.8395C62.4949 91.7445 62.1466 91.697 61.64 91.697H60.5952V89.2987H62.1624C62.7798 89.2987 63.3418 89.3303 63.8484 89.3936C64.3549 89.4411 64.7903 89.5599 65.1544 89.7498C65.5185 89.924 65.7955 90.1931 65.9855 90.5572C66.1913 90.9055 66.2942 91.3725 66.2942 91.9582C66.2942 92.4331 66.1517 92.8843 65.8668 93.3117C65.5976 93.7391 65.2889 94.1745 64.9407 94.6177C64.6082 95.0452 64.2995 95.4963 64.0146 95.9712C63.7455 96.4303 63.6109 96.929 63.6109 97.4672C63.6109 97.958 63.6505 98.3933 63.7296 98.7732C63.8088 99.1532 63.9433 99.4777 64.1333 99.7468C64.3391 100 64.6161 100.198 64.9644 100.34C65.3285 100.467 65.7876 100.53 66.3417 100.53C66.8799 100.53 67.3232 100.459 67.6714 100.317C68.0355 100.174 68.3126 99.9685 68.5025 99.6993C68.7083 99.4302 68.8508 99.1057 68.93 98.7258C69.0091 98.33 69.0487 97.8867 69.0487 97.396V89.2987H72.3969ZM86.9974 89.2987V97.8472C86.9974 99.6677 86.475 101.013 85.4302 101.884C84.4012 102.755 82.8339 103.19 80.7285 103.19C78.6072 103.19 77.0162 102.818 75.9556 102.074C74.8949 101.314 74.3646 100.253 74.3646 98.892C74.3646 97.9738 74.5704 97.2614 74.982 96.7548C75.3936 96.2483 75.9872 95.8604 76.7629 95.5913C76.0506 95.338 75.4886 94.9739 75.077 94.499C74.6812 94.0241 74.4754 93.4304 74.4596 92.7181C74.4279 91.9107 74.5546 91.2537 74.8395 90.7472C75.1403 90.2247 75.5598 89.8369 76.0981 89.5836C76.6363 89.3303 77.2774 89.1958 78.0215 89.1799C78.7655 89.1483 79.5808 89.2116 80.4673 89.3699V91.7682C79.5016 91.6416 78.7972 91.6812 78.3539 91.887C77.9106 92.0769 77.689 92.4727 77.689 93.0742C77.689 93.375 77.7682 93.6204 77.9265 93.8104C78.1006 94.0003 78.3143 94.1507 78.5676 94.2615C78.8367 94.3724 79.1296 94.4515 79.4462 94.499C79.7787 94.5465 80.1032 94.5702 80.4198 94.5702H81.1797V96.7074H80.586C80.2536 96.7074 79.9132 96.7311 79.5649 96.7786C79.2325 96.8261 78.9238 96.9132 78.6389 97.0398C78.3539 97.1664 78.1244 97.3406 77.9502 97.5622C77.7761 97.768 77.689 98.0371 77.689 98.3696C77.689 99.0186 77.9186 99.541 78.3777 99.9368C78.8526 100.333 79.6362 100.53 80.7285 100.53C81.8366 100.53 82.6044 100.253 83.0318 99.6993C83.4751 99.1294 83.6967 98.3062 83.6967 97.2298V89.2987H86.9974ZM95.9551 99.3669V101.694H92.7969C91.8629 101.694 91.1189 101.591 90.5648 101.385C90.0108 101.164 89.5912 100.879 89.3063 100.53C89.0213 100.166 88.8472 99.7547 88.7839 99.2957C88.7364 98.8366 88.7443 98.3616 88.8076 97.8709H91.5147C91.4672 98.4408 91.5621 98.8366 91.7996 99.0582C92.0371 99.264 92.5278 99.3669 93.2718 99.3669H95.9551ZM95.9551 92.5993V94.9739H92.7969C91.8629 94.9739 91.1189 94.8631 90.5648 94.6415C90.0108 94.4198 89.5912 94.127 89.3063 93.7629C89.0213 93.3988 88.8472 92.9872 88.7839 92.5281C88.7364 92.069 88.7443 91.5941 88.8076 91.1033H91.5147C91.4672 91.6891 91.5621 92.0848 91.7996 92.2906C92.0371 92.4964 92.5278 92.5993 93.2718 92.5993H95.9551ZM104.621 102.834C104.257 102.913 103.908 102.968 103.576 103C103.259 103.016 102.943 103.024 102.626 103.024C101.296 103.008 100.291 102.668 99.6103 102.003C98.9296 101.322 98.5892 100.206 98.5892 98.6545V89.2987H101.914V98.4883C101.914 98.9157 101.953 99.264 102.032 99.5331C102.112 99.7864 102.222 99.9922 102.365 100.151C102.507 100.293 102.674 100.396 102.863 100.459C103.069 100.507 103.283 100.53 103.505 100.53C103.679 100.562 103.853 100.57 104.027 100.554C104.217 100.538 104.415 100.523 104.621 100.507V102.834ZM118.89 86.188V97.8472C118.89 99.6677 118.344 101.013 117.251 101.884C116.175 102.755 114.584 103.19 112.479 103.19C110.357 103.19 108.75 102.755 107.658 101.884C106.582 101.013 106.043 99.6677 106.043 97.8472V89.2987H109.368V97.3722C109.368 98.3696 109.605 99.1453 110.08 99.6993C110.555 100.253 111.355 100.53 112.479 100.53C113.587 100.53 114.378 100.253 114.853 99.6993C115.328 99.1453 115.565 98.3696 115.565 97.3722V86.188H118.89ZM114.661 83.6234V87.5415H105.353V85.3094H111.693V83.6234H114.661ZM133.515 89.2987V97.8472C133.515 99.6677 132.993 101.013 131.948 101.884C130.919 102.755 129.352 103.19 127.246 103.19C125.125 103.19 123.534 102.818 122.473 102.074C121.413 101.314 120.882 100.253 120.882 98.892C120.882 97.9738 121.088 97.2614 121.5 96.7548C121.911 96.2483 122.505 95.8604 123.281 95.5913C122.568 95.338 122.006 94.9739 121.595 94.499C121.199 94.0241 120.993 93.4304 120.977 92.7181C120.946 91.9107 121.072 91.2537 121.357 90.7472C121.658 90.2247 122.078 89.8369 122.616 89.5836C123.154 89.3303 123.795 89.1958 124.539 89.1799C125.283 89.1483 126.098 89.2116 126.985 89.3699V91.7682C126.019 91.6416 125.315 91.6812 124.872 91.887C124.428 92.0769 124.207 92.4727 124.207 93.0742C124.207 93.375 124.286 93.6204 124.444 93.8104C124.618 94.0003 124.832 94.1507 125.085 94.2615C125.354 94.3724 125.647 94.4515 125.964 94.499C126.296 94.5465 126.621 94.5702 126.937 94.5702H127.697V96.7074H127.104C126.771 96.7074 126.431 96.7311 126.083 96.7786C125.75 96.8261 125.441 96.9132 125.157 97.0398C124.872 97.1664 124.642 97.3406 124.468 97.5622C124.294 97.768 124.207 98.0371 124.207 98.3696C124.207 99.0186 124.436 99.541 124.895 99.9368C125.37 100.333 126.154 100.53 127.246 100.53C128.354 100.53 129.122 100.253 129.55 99.6993C129.993 99.1294 130.214 98.3062 130.214 97.2298V89.2987H133.515ZM141.998 89.2037C144.183 89.2037 145.813 89.6865 146.89 90.6522C147.982 91.602 148.528 92.9634 148.528 94.7365V103H145.204V95.0689C145.204 94.0399 144.927 93.2563 144.372 92.7181C143.834 92.164 143.019 91.887 141.927 91.887C140.977 91.887 140.201 92.0532 139.6 92.3856C138.998 92.7181 138.594 93.2721 138.389 94.0478H141.119V95.1639C140.787 95.3222 140.51 95.4963 140.288 95.6863C140.067 95.8604 139.885 96.0741 139.742 96.3274C139.6 96.5807 139.497 96.8736 139.433 97.206C139.37 97.5385 139.338 97.9263 139.338 98.3696V103H136.038V98.797C136.038 97.9105 136.236 97.1585 136.631 96.5411C137.027 95.9237 137.605 95.528 138.365 95.3538H135.373C135.373 93.3275 135.911 91.7999 136.988 90.7709C138.064 89.7261 139.734 89.2037 141.998 89.2037Z" fill="black"/>
<g clip-path="url(#clip0_47_476)">
<path fill-rule="evenodd" clip-rule="evenodd" d="M121.973 42.6945C122.065 42.2301 121.92 41.7499 121.585 41.415C121.25 41.08 120.77 40.9346 120.306 41.0275L106.139 43.8609C105.627 43.9633 105.212 44.3394 105.061 44.8395C104.909 45.3395 105.046 45.8823 105.415 46.2518L110.08 50.9167L108.749 52.2474L99.5337 50.9309L99.133 53.7358L106.245 54.7518L103.082 57.914L93.8671 56.5977L93.4664 59.4024L100.578 60.4184L97.3299 63.6667H89.4167C88.8437 63.6667 88.3272 64.0118 88.1079 64.5412C87.8886 65.0706 88.0098 65.6799 88.415 66.0851L96.915 74.5851C97.3201 74.9903 97.9295 75.1115 98.4588 74.8922C98.9882 74.6729 99.3334 74.1564 99.3334 73.5834L99.3334 65.6701L102.582 62.4219L103.598 69.5337L106.402 69.133L105.086 59.9176L108.248 56.7552L109.264 63.867L112.069 63.4664L110.753 54.2509L112.083 52.9202L116.748 57.5851C117.118 57.9545 117.661 58.0907 118.161 57.9392C118.661 57.7878 119.037 57.3734 119.139 56.8612L121.973 42.6945ZM114.917 46.6667C114.917 47.4491 114.282 48.0834 113.5 48.0834C112.718 48.0834 112.083 47.4491 112.083 46.6667C112.083 45.8843 112.718 45.25 113.5 45.25C114.282 45.25 114.917 45.8843 114.917 46.6667Z" fill="black"/>
</g>
<defs>
<clipPath id="clip0_47_476">
<rect width="34" height="34" fill="white" transform="translate(88 41)"/>
</clipPath>
</defs>
</svg>
