<svg width="208" height="141" viewBox="0 0 208 141" fill="none" xmlns="http://www.w3.org/2000/svg">
<rect x="0.5" y="0.5" width="207" height="123" fill="#248FED" stroke="black" stroke-linejoin="round"/>
<path d="M1 122.5C0.798644 122.5 0.616935 122.621 0.538985 122.806C0.461036 122.992 0.502059 123.206 0.643064 123.35L17.3193 140.35C17.4133 140.446 17.5419 140.5 17.6762 140.5H191.305C191.444 140.5 191.577 140.442 191.672 140.339L207.367 123.339C207.502 123.193 207.538 122.981 207.458 122.799C207.378 122.618 207.199 122.5 207 122.5H1Z" fill="#4BABFF" stroke="black" stroke-linejoin="round"/>
<rect x="23.5" y="22.5" width="161" height="100" fill="#4BABFF" stroke="black"/>
<path d="M24 23L1 1" stroke="black"/>
<path d="M184 23L207 1" stroke="black"/>
<path d="M71.2809 92.6438V101.572C71.2809 103.329 70.7664 104.596 69.7374 105.372C68.7085 106.147 67.2045 106.535 65.2257 106.535C63.2311 106.535 61.7193 106.163 60.6903 105.419C59.6613 104.659 59.1468 103.401 59.1468 101.643V100.907C59.1468 100.179 59.2893 99.5697 59.5742 99.0789C59.8592 98.5882 60.1679 98.1608 60.5003 97.7967C60.8328 97.4326 61.1414 97.1001 61.4264 96.7993C61.7113 96.4827 61.8538 96.1424 61.8538 95.7783C61.8538 95.4617 61.7588 95.2638 61.5689 95.1846C61.3789 95.0896 61.0306 95.0421 60.5241 95.0421H59.4792V92.6438H61.0465C61.6639 92.6438 62.2258 92.6755 62.7324 92.7388C63.239 92.7863 63.6743 92.905 64.0384 93.095C64.4025 93.2691 64.6796 93.5382 64.8695 93.9023C65.0753 94.2506 65.1782 94.7176 65.1782 95.3033C65.1782 95.7783 65.0358 96.2294 64.7508 96.6569C64.4817 97.0843 64.173 97.5196 63.8247 97.9629C63.4923 98.3903 63.1836 98.8415 62.8986 99.3164C62.6295 99.7755 62.495 100.274 62.495 100.812C62.495 101.303 62.5345 101.738 62.6137 102.118C62.6928 102.498 62.8274 102.823 63.0174 103.092C63.2232 103.345 63.5002 103.543 63.8485 103.686C64.2126 103.812 64.6717 103.876 65.2257 103.876C65.764 103.876 66.2072 103.804 66.5555 103.662C66.9196 103.519 67.1966 103.314 67.3866 103.044C67.5924 102.775 67.7349 102.451 67.814 102.071C67.8932 101.675 67.9328 101.232 67.9328 100.741V92.6438H71.2809ZM85.8814 92.6438V101.192C85.8814 103.013 85.359 104.358 84.3142 105.229C83.2852 106.1 81.718 106.535 79.6125 106.535C77.4912 106.535 75.9003 106.163 74.8396 105.419C73.779 104.659 73.2487 103.599 73.2487 102.237C73.2487 101.319 73.4545 100.607 73.8661 100.1C74.2776 99.5934 74.8713 99.2056 75.647 98.9365C74.9346 98.6832 74.3726 98.3191 73.961 97.8442C73.5653 97.3692 73.3595 96.7756 73.3436 96.0632C73.312 95.2559 73.4386 94.5989 73.7236 94.0923C74.0244 93.5699 74.4439 93.1821 74.9821 92.9288C75.5203 92.6755 76.1615 92.5409 76.9055 92.5251C77.6496 92.4934 78.4648 92.5567 79.3513 92.7151V95.1134C78.3857 94.9867 77.6812 95.0263 77.238 95.2321C76.7947 95.4221 76.5731 95.8178 76.5731 96.4194C76.5731 96.7202 76.6522 96.9656 76.8105 97.1555C76.9847 97.3455 77.1984 97.4959 77.4517 97.6067C77.7208 97.7175 78.0137 97.7967 78.3303 97.8442C78.6627 97.8916 78.9872 97.9154 79.3038 97.9154H80.0637V100.053H79.4701C79.1376 100.053 78.7973 100.076 78.449 100.124C78.1166 100.171 77.8079 100.258 77.5229 100.385C77.238 100.512 77.0084 100.686 76.8343 100.907C76.6601 101.113 76.5731 101.382 76.5731 101.715C76.5731 102.364 76.8026 102.886 77.2617 103.282C77.7366 103.678 78.5202 103.876 79.6125 103.876C80.7207 103.876 81.4885 103.599 81.9159 103.044C82.3591 102.475 82.5808 101.651 82.5808 100.575V92.6438H85.8814ZM94.8392 102.712V105.039H91.681C90.747 105.039 90.0029 104.936 89.4489 104.73C88.8948 104.509 88.4753 104.224 88.1903 103.876C87.9054 103.511 87.7313 103.1 87.6679 102.641C87.6204 102.182 87.6284 101.707 87.6917 101.216H90.3987C90.3512 101.786 90.4462 102.182 90.6837 102.403C90.9211 102.609 91.4119 102.712 92.1559 102.712H94.8392ZM94.8392 95.9445V98.3191H91.681C90.747 98.3191 90.0029 98.2083 89.4489 97.9866C88.8948 97.765 88.4753 97.4721 88.1903 97.108C87.9054 96.7439 87.7313 96.3323 87.6679 95.8732C87.6204 95.4142 87.6284 94.9392 87.6917 94.4485H90.3987C90.3512 95.0342 90.4462 95.43 90.6837 95.6358C90.9211 95.8416 91.4119 95.9445 92.1559 95.9445H94.8392ZM105.048 92.5488C105.713 92.5488 106.338 92.6517 106.924 92.8575C107.51 93.0475 108.016 93.3404 108.444 93.7361C108.887 94.1319 109.235 94.6147 109.489 95.1846C109.742 95.7545 109.869 96.4036 109.869 97.1318V106.345H106.568V98.0579C106.568 97.0447 106.283 96.3165 105.713 95.8732C105.159 95.43 104.439 95.2084 103.552 95.2084C102.507 95.2084 101.692 95.5408 101.106 96.2057C100.521 96.8547 100.228 97.7413 100.228 98.8652V106.345H96.9271V92.6438H100.133V95.1134H100.18C100.465 94.2585 101.043 93.6174 101.914 93.19C102.784 92.7625 103.829 92.5488 105.048 92.5488ZM111.265 88.6545V90.8866H104.806C103.872 90.8866 103.128 90.7916 102.574 90.6017C102.02 90.3959 101.601 90.1347 101.316 89.8181C101.031 89.4856 100.864 89.1057 100.817 88.6783C100.754 88.235 100.746 87.7759 100.793 87.301H103.619C103.587 87.8551 103.69 88.2271 103.928 88.4171C104.149 88.5912 104.632 88.6703 105.376 88.6545H111.265ZM109.817 85.9H106.991V81.697H109.817V85.9ZM117.487 92.5488C119.513 92.5488 121.088 93.1504 122.212 94.3535C123.336 95.5408 123.898 97.2505 123.898 99.4826C123.898 101.699 123.352 103.417 122.259 104.635C121.183 105.839 119.592 106.44 117.487 106.44C116.727 106.44 116.006 106.337 115.326 106.131C114.661 105.91 114.067 105.601 113.545 105.205C113.022 104.81 112.587 104.335 112.239 103.781C111.906 103.227 111.693 102.609 111.598 101.928H114.803C115.009 102.53 115.349 102.989 115.824 103.306C116.315 103.622 116.869 103.781 117.487 103.781C118.041 103.781 118.516 103.67 118.911 103.448C119.307 103.211 119.632 102.902 119.885 102.522C120.138 102.126 120.32 101.667 120.431 101.145C120.558 100.622 120.621 100.068 120.621 99.4826C120.621 98.9127 120.558 98.3745 120.431 97.8679C120.32 97.3455 120.138 96.8943 119.885 96.5144C119.632 96.1186 119.307 95.8099 118.911 95.5883C118.516 95.3667 118.041 95.2559 117.487 95.2559C116.869 95.2559 116.315 95.4142 115.824 95.7308C115.349 96.0474 115.009 96.4986 114.803 97.0843H111.598C111.693 96.4036 111.906 95.7862 112.239 95.2321C112.587 94.6622 113.022 94.1794 113.545 93.7836C114.067 93.3879 114.661 93.0871 115.326 92.8813C116.006 92.6596 116.727 92.5488 117.487 92.5488ZM133.326 106.179C132.962 106.258 132.614 106.313 132.282 106.345C131.949 106.361 131.625 106.369 131.308 106.369C129.994 106.369 128.997 106.029 128.316 105.348C127.635 104.651 127.295 103.535 127.295 102V95.0659C127.295 94.306 127.445 93.6491 127.746 93.095C128.047 92.5409 128.379 92.0581 128.743 91.6465C129.123 91.2191 129.464 90.847 129.764 90.5304C130.065 90.198 130.216 89.8735 130.216 89.5569C130.216 89.3194 130.136 89.1532 129.978 89.0582C129.836 88.9632 129.677 88.9157 129.503 88.9157C129.25 88.9157 128.997 89.0186 128.743 89.2244C128.506 89.4302 128.348 89.7152 128.268 90.0793H126.226L123.757 86.8498H126.583L127.485 88.4171C127.659 87.958 127.944 87.5622 128.34 87.2298C128.751 86.8815 129.313 86.7074 130.026 86.7074C130.406 86.7074 130.778 86.7469 131.142 86.8261C131.506 86.8894 131.838 87.0161 132.139 87.206C132.44 87.3802 132.677 87.6176 132.851 87.9184C133.041 88.2033 133.136 88.5675 133.136 89.0107C133.136 89.5015 133.073 89.913 132.946 90.2455C132.82 90.5621 132.661 90.855 132.471 91.1241C132.297 91.3774 132.099 91.6307 131.878 91.8839C131.672 92.1214 131.474 92.4064 131.284 92.7388C131.11 93.0554 130.96 93.4433 130.833 93.9023C130.706 94.3456 130.643 94.8997 130.643 95.5646V101.833C130.643 102.277 130.683 102.633 130.762 102.902C130.857 103.171 130.983 103.377 131.142 103.519C131.3 103.662 131.49 103.757 131.712 103.804C131.933 103.852 132.179 103.876 132.448 103.876C132.574 103.876 132.709 103.876 132.851 103.876C132.994 103.876 133.152 103.868 133.326 103.852V106.179ZM147.642 89.5331V101.192C147.642 103.013 147.096 104.358 146.003 105.229C144.927 106.1 143.336 106.535 141.23 106.535C139.109 106.535 137.502 106.1 136.41 105.229C135.333 104.358 134.795 103.013 134.795 101.192V92.6438H138.12V100.717C138.12 101.715 138.357 102.49 138.832 103.044C139.307 103.599 140.106 103.876 141.23 103.876C142.338 103.876 143.13 103.599 143.605 103.044C144.08 102.49 144.317 101.715 144.317 100.717V89.5331H147.642Z" fill="black"/>
<path fill-rule="evenodd" clip-rule="evenodd" d="M103.11 39C102.776 39 102.453 39.1162 102.196 39.3284L93.6346 46.4117C93.3266 46.6665 93.1408 47.0382 93.1226 47.4358C93.1045 47.8334 93.2556 48.2203 93.5391 48.5017L96.393 51.3351C96.8056 51.7447 97.4278 51.8636 97.9641 51.6355L106.862 47.8496L109.057 51.1192C109.317 51.5065 109.753 51.7423 110.222 51.7498C110.691 51.7573 111.133 51.5356 111.406 51.1568L118.541 41.2401C118.851 40.8083 118.893 40.2403 118.648 39.7684C118.404 39.2966 117.914 39 117.379 39H103.11ZM95.739 70.1667L93.0982 55.7466L90.2903 56.2534L93.1442 71.8368C93.2676 72.5104 93.8585 73 94.5481 73H108.818C109.507 73 110.098 72.5104 110.222 71.8368L113.076 56.2534L110.268 55.7466L107.627 70.1667H95.739ZM105.964 55.2917C105.964 56.4652 105.005 57.4167 103.823 57.4167C102.641 57.4167 101.683 56.4652 101.683 55.2917C101.683 54.1181 102.641 53.1667 103.823 53.1667C105.005 53.1667 105.964 54.1181 105.964 55.2917ZM98.1155 61.6667C99.2977 61.6667 100.256 60.7152 100.256 59.5417C100.256 58.3681 99.2977 57.4167 98.1155 57.4167C96.9334 57.4167 95.9751 58.3681 95.9751 59.5417C95.9751 60.7152 96.9334 61.6667 98.1155 61.6667ZM105.964 63.7917C105.964 64.9652 105.005 65.9167 103.823 65.9167C102.641 65.9167 101.683 64.9652 101.683 63.7917C101.683 62.6181 102.641 61.6667 103.823 61.6667C105.005 61.6667 105.964 62.6181 105.964 63.7917Z" fill="black"/>
</svg>
