<svg width="257" height="300" viewBox="0 0 257 300" fill="none" xmlns="http://www.w3.org/2000/svg">
<g clip-path="url(#clip0_44_398)">
<path d="M112.208 106.098H100.589C100.589 106.098 98.3465 98.0357 97.6938 92.8791C97.0411 87.7225 99.5688 70.514 98.6076 54.6513C97.6463 38.7885 92.1398 32.1909 92.1398 32.1909C92.1398 32.1909 88.0456 32.8816 89.6477 37.7167C90.8819 40.8011 92.1161 43.1591 93.0774 46.7794C94.1454 51.9598 95.261 59.8912 95.2135 64.5834C95.166 69.2755 91.1548 93.3674 90.8463 96.7496C90.5377 100.132 89.707 107.051 91.499 110.278H150.895L150.753 106.098H131.362L131.635 100.072C131.694 98.6907 130.602 97.5475 129.225 97.5475H116.326L116.112 100.191" fill="white"/>
<path d="M112.208 106.098H100.589C100.589 106.098 98.3465 98.0357 97.6938 92.8791C97.0411 87.7225 99.5688 70.514 98.6076 54.6513C97.6463 38.7885 92.1398 32.1909 92.1398 32.1909C92.1398 32.1909 88.0456 32.8816 89.6477 37.7167C90.8819 40.8011 92.1161 43.1591 93.0774 46.7794C94.1454 51.9598 95.261 59.8912 95.2135 64.5834C95.166 69.2755 91.1548 93.3674 90.8463 96.7496C90.5377 100.132 89.707 107.051 91.499 110.278H150.895L150.753 106.098H131.362L131.635 100.072C131.694 98.6907 130.602 97.5475 129.225 97.5475H116.326L116.112 100.191" stroke="black" stroke-linecap="round" stroke-linejoin="round"/>
<path d="M76.19 72.3361C77.5191 59.8674 73.8996 46.6246 71.1107 38.6575C69.8528 35.061 72.5348 31.2977 76.3324 31.2977H91.5108C91.5108 31.2977 87.3691 33.8224 90.4546 39.6102C93.5401 45.398 95.2372 56.0327 95.2372 66.3816C95.2372 83.9355 87.8675 96.6305 91.4989 110.278H111.792L112.575 102.299C112.694 101.084 113.727 100.156 114.949 100.167L126.532 100.31C127.873 100.322 128.929 101.466 128.846 102.811L128.395 110.278H150.895C150.895 110.278 149.566 93.8438 154.812 78.7193C158.562 67.8941 167.13 48.2442 171.687 37.9668C173.384 34.1321 177.644 32.1433 181.668 33.2865L198.056 37.9549C198.056 37.9549 195.552 39.8127 193.95 43.5521C191.055 50.2926 186.118 64.0713 183.163 72.9792C178.582 86.8294 179.709 94.4868 180.362 114.875C181.015 135.251 193.464 143.147 193.464 143.147C193.464 143.147 190.948 185.281 198.045 207.706C189.061 227.439 176.553 231.023 163.143 231.023C149.732 231.023 133.605 228.642 110.368 231.333C87.1317 234.025 61.688 221.449 48.1592 214.268C34.6303 207.098 46.6757 182.447 61.866 170.8C52.9299 160.034 54.5082 146.767 63.9903 127.868C73.4723 108.968 76.1662 72.348 76.1662 72.348L76.19 72.3361Z" fill="white" stroke="black" stroke-linecap="round" stroke-linejoin="round"/>
<path d="M198.045 207.706C198.045 207.706 190.983 183.721 193.464 143.147C185.311 137.383 180.73 124.462 180.303 113.244C179.876 102.025 179.247 85.4956 181.881 77.2307C184.516 68.9659 192.74 45.1717 194.508 42.3969C195.873 40.2652 198.045 37.9668 198.045 37.9668C201.344 42.3969 200.715 47.4463 195.054 61.3322C189.393 75.2181 190.034 107.11 198.045 120.996C206.067 134.882 209.52 138.669 209.52 138.669C209.52 138.669 213.923 166.453 215.502 180.66C217.08 194.868 208.951 187.925 203.42 193.915C197.89 199.905 198.056 207.694 198.056 207.694" fill="white"/>
<path d="M198.045 207.706C198.045 207.706 190.983 183.721 193.464 143.147C185.311 137.383 180.73 124.462 180.303 113.244C179.876 102.025 179.247 85.4956 181.881 77.2307C184.516 68.9659 192.74 45.1717 194.508 42.3969C195.873 40.2652 198.045 37.9668 198.045 37.9668C201.344 42.3969 200.715 47.4463 195.054 61.3322C189.393 75.2181 190.034 107.11 198.045 120.996C206.067 134.882 209.52 138.669 209.52 138.669C209.52 138.669 213.923 166.453 215.502 180.66C217.08 194.868 208.951 187.925 203.42 193.915C197.89 199.905 198.056 207.694 198.056 207.694" stroke="black" stroke-linecap="round" stroke-linejoin="round"/>
</g>
<defs>
<clipPath id="clip0_44_398">
<rect width="174" height="201" fill="white" transform="translate(42 31)"/>
</clipPath>
</defs>
</svg>
