<svg width="208" height="140" viewBox="0 0 208 140" fill="none" xmlns="http://www.w3.org/2000/svg">
<rect x="0.5" y="0.5" width="207" height="122" fill="#D8B500" stroke="black" stroke-linejoin="round"/>
<rect x="23.5" y="22.5" width="161" height="100" fill="#FFD600" stroke="black"/>
<g clip-path="url(#clip0_47_474)">
<path fill-rule="evenodd" clip-rule="evenodd" d="M104.062 39.19C103.647 38.4686 102.882 38.0168 102.047 38.0005C101.212 37.9841 100.429 38.4054 99.986 39.11L92.0693 51.7057L96.0973 54.2091L101.909 44.963L105.626 51.4317L103.583 52.6425L111.184 55.3191L111.817 47.7617L109.707 49.0126L104.062 39.19ZM110.959 60.3115L114.782 67.9149H109.125L109.125 65.5532L102.792 70.2766L109.125 75L109.125 72.6383H118.625C119.448 72.6383 120.213 72.2145 120.645 71.5182C121.078 70.822 121.117 69.9526 120.749 69.2204L115.208 58.1992L110.959 60.3115ZM92.1226 62.1379L93.9251 63.034L92.3417 55.3191L85.375 58.783L87.8741 60.0255L83.2507 69.2204C82.8826 69.9526 82.922 70.822 83.3547 71.5182C83.7874 72.2145 84.5519 72.6383 85.375 72.6383H98.0417L98.0417 67.9149H89.2178L92.1226 62.1379Z" fill="black"/>
</g>
<path d="M1 122.5C0.795885 122.5 0.612262 122.624 0.536105 122.813C0.459949 123.003 0.50655 123.219 0.653837 123.361L17.33 139.361C17.4231 139.45 17.5472 139.5 17.6762 139.5H191.305C191.439 139.5 191.568 139.446 191.662 139.35L207.357 123.35C207.498 123.206 207.539 122.992 207.461 122.806C207.383 122.621 207.201 122.5 207 122.5H1Z" fill="#FFD600" stroke="black" stroke-linejoin="round"/>
<path d="M184 23L207 1" stroke="black"/>
<path d="M24 22L1 1" stroke="black"/>
<path d="M58.9188 92.2987V101.227C58.9188 102.984 58.4043 104.251 57.3753 105.026C56.3463 105.802 54.8424 106.19 52.8636 106.19C50.8689 106.19 49.3571 105.818 48.3281 105.074C47.2991 104.314 46.7846 103.056 46.7846 101.298V100.562C46.7846 99.8341 46.9271 99.2246 47.2121 98.7338C47.497 98.2431 47.8057 97.8157 48.1382 97.4516C48.4706 97.0875 48.7793 96.755 49.0642 96.4542C49.3492 96.1376 49.4917 95.7973 49.4917 95.4332C49.4917 95.1166 49.3967 94.9187 49.2067 94.8395C49.0167 94.7445 48.6685 94.6971 48.1619 94.6971H47.1171V92.2987H48.6843C49.3017 92.2987 49.8637 92.3304 50.3703 92.3937C50.8768 92.4412 51.3122 92.5599 51.6763 92.7499C52.0404 92.924 52.3174 93.1931 52.5074 93.5573C52.7132 93.9055 52.8161 94.3725 52.8161 94.9583C52.8161 95.4332 52.6736 95.8843 52.3887 96.3118C52.1195 96.7392 51.8108 97.1745 51.4626 97.6178C51.1301 98.0452 50.8214 98.4964 50.5365 98.9713C50.2674 99.4304 50.1328 99.929 50.1328 100.467C50.1328 100.958 50.1724 101.393 50.2515 101.773C50.3307 102.153 50.4652 102.478 50.6552 102.747C50.861 103 51.138 103.198 51.4863 103.341C51.8504 103.467 52.3095 103.53 52.8636 103.53C53.4018 103.53 53.8451 103.459 54.1933 103.317C54.5574 103.174 54.8345 102.969 55.0244 102.699C55.2302 102.43 55.3727 102.106 55.4519 101.726C55.531 101.33 55.5706 100.887 55.5706 100.396V92.2987H58.9188ZM73.5193 92.2987V100.847C73.5193 102.668 72.9969 104.013 71.9521 104.884C70.9231 105.755 69.3558 106.19 67.2504 106.19C65.1291 106.19 63.5381 105.818 62.4775 105.074C61.4168 104.314 60.8865 103.253 60.8865 101.892C60.8865 100.974 61.0923 100.261 61.5039 99.7549C61.9155 99.2483 62.5091 98.8605 63.2848 98.5914C62.5725 98.3381 62.0105 97.974 61.5989 97.4991C61.2031 97.0241 60.9973 96.4305 60.9815 95.7181C60.9498 94.9108 61.0765 94.2538 61.3614 93.7472C61.6622 93.2248 62.0817 92.837 62.6199 92.5837C63.1582 92.3304 63.7993 92.1958 64.5434 92.18C65.2874 92.1483 66.1027 92.2117 66.9892 92.37V94.7683C66.0235 94.6416 65.3191 94.6812 64.8758 94.887C64.4325 95.077 64.2109 95.4727 64.2109 96.0743C64.2109 96.3751 64.2901 96.6205 64.4484 96.8104C64.6225 97.0004 64.8362 97.1508 65.0895 97.2616C65.3586 97.3724 65.6515 97.4516 65.9681 97.4991C66.3005 97.5465 66.6251 97.5703 66.9417 97.5703H67.7016V99.7074H67.1079C66.7755 99.7074 66.4351 99.7312 66.0868 99.7787C65.7544 99.8261 65.4457 99.9132 65.1608 100.04C64.8758 100.167 64.6463 100.341 64.4721 100.562C64.298 100.768 64.2109 101.037 64.2109 101.37C64.2109 102.019 64.4405 102.541 64.8995 102.937C65.3745 103.333 66.1581 103.53 67.2504 103.53C68.3585 103.53 69.1263 103.253 69.5537 102.699C69.997 102.129 70.2186 101.306 70.2186 100.23V92.2987H73.5193ZM82.477 102.367V104.694H79.3188C78.3848 104.694 77.6408 104.591 77.0867 104.385C76.5326 104.164 76.1131 103.879 75.8282 103.53C75.5432 103.166 75.3691 102.755 75.3058 102.296C75.2583 101.837 75.2662 101.362 75.3295 100.871H78.0365C77.9891 101.441 78.084 101.837 78.3215 102.058C78.559 102.264 79.0497 102.367 79.7937 102.367H82.477ZM82.477 95.5994V97.974H79.3188C78.3848 97.974 77.6408 97.8632 77.0867 97.6415C76.5326 97.4199 76.1131 97.127 75.8282 96.7629C75.5432 96.3988 75.3691 95.9872 75.3058 95.5282C75.2583 95.0691 75.2662 94.5942 75.3295 94.1034H78.0365C77.9891 94.6891 78.084 95.0849 78.3215 95.2907C78.559 95.4965 79.0497 95.5994 79.7937 95.5994H82.477ZM91.76 98.2827C92.2507 98.4568 92.7415 98.6468 93.2322 98.8526C93.723 99.0425 94.1583 99.2958 94.5382 99.6124C94.9182 99.9132 95.2189 100.293 95.4406 100.752C95.6622 101.211 95.7493 101.773 95.7018 102.438C95.6543 103.151 95.4485 103.744 95.0844 104.219C94.7361 104.694 94.2849 105.082 93.7309 105.383C93.1926 105.668 92.5911 105.873 91.9262 106C91.2771 106.127 90.6281 106.19 89.979 106.19C89.2983 106.19 88.6255 106.111 87.9606 105.953C87.2957 105.778 86.7021 105.517 86.1797 105.169C85.6573 104.821 85.2219 104.377 84.8737 103.839C84.5412 103.301 84.3592 102.668 84.3275 101.94H87.3195C87.462 102.462 87.7865 102.874 88.2931 103.174C88.8155 103.459 89.3854 103.602 90.0028 103.602C90.3352 103.602 90.6518 103.578 90.9526 103.53C91.2692 103.467 91.5463 103.372 91.7837 103.246C92.0212 103.103 92.2111 102.937 92.3536 102.747C92.4961 102.541 92.5673 102.296 92.5673 102.011C92.5673 101.568 92.2586 101.227 91.6412 100.99C91.0397 100.736 90.1294 100.475 88.9105 100.206C88.3089 100.064 87.739 99.9053 87.2008 99.7312C86.6784 99.5412 86.2114 99.2958 85.7998 98.995C85.404 98.6943 85.0874 98.3302 84.8499 97.9027C84.6283 97.4595 84.5175 96.9292 84.5175 96.3118C84.5175 95.6311 84.6837 95.0374 85.0162 94.5308C85.3486 94.0084 85.776 93.5731 86.2984 93.2248C86.8367 92.8765 87.4382 92.6232 88.1031 92.4649C88.768 92.2908 89.4329 92.2037 90.0978 92.2037C90.7468 92.2037 91.3959 92.2829 92.0449 92.4412C92.7098 92.5995 93.3034 92.8528 93.8259 93.2011C94.3483 93.5335 94.7757 93.9688 95.1081 94.5071C95.4564 95.0453 95.6305 95.6865 95.6305 96.4305H92.6861C92.5911 95.8764 92.2903 95.4727 91.7837 95.2195C91.293 94.9503 90.731 94.8158 90.0978 94.8158C89.8128 94.8158 89.5279 94.8474 89.2429 94.9108C88.958 94.9741 88.7047 95.0691 88.483 95.1957C88.2614 95.3224 88.0794 95.4807 87.9369 95.6706C87.7944 95.8448 87.7232 96.0506 87.7232 96.288C87.7232 96.573 87.8419 96.8104 88.0794 97.0004C88.3168 97.1904 88.6255 97.3566 89.0054 97.4991C89.3854 97.6257 89.8128 97.7523 90.2877 97.879C90.7785 97.9898 91.2692 98.1244 91.76 98.2827ZM95.5077 86.6235V90.5415H83.6586V88.3094H92.5632V86.6235H95.5077ZM105.172 105.834C104.808 105.913 104.46 105.968 104.127 106C103.795 106.016 103.47 106.024 103.154 106.024C101.84 106.024 100.843 105.683 100.162 105.003C99.4812 104.306 99.1408 103.19 99.1408 101.655V94.7208C99.1408 93.9609 99.2912 93.304 99.592 92.7499C99.8928 92.1958 100.225 91.713 100.589 91.3014C100.969 90.874 101.31 90.502 101.61 90.1853C101.911 89.8529 102.062 89.5284 102.062 89.2118C102.062 88.9743 101.982 88.8081 101.824 88.7131C101.682 88.6181 101.523 88.5706 101.349 88.5706C101.096 88.5706 100.843 88.6735 100.589 88.8793C100.352 89.0851 100.194 89.3701 100.114 89.7342H98.0723L95.6027 86.5047H98.4285L99.3308 88.072C99.5049 87.6129 99.7899 87.2171 100.186 86.8847C100.597 86.5364 101.159 86.3623 101.872 86.3623C102.252 86.3623 102.624 86.4018 102.988 86.481C103.352 86.5443 103.684 86.671 103.985 86.8609C104.286 87.0351 104.523 87.2725 104.697 87.5733C104.887 87.8583 104.982 88.2224 104.982 88.6656C104.982 89.1564 104.919 89.568 104.792 89.9004C104.666 90.217 104.507 90.5099 104.317 90.779C104.143 91.0323 103.945 91.2856 103.724 91.5389C103.518 91.7763 103.32 92.0613 103.13 92.3937C102.956 92.7103 102.806 93.0982 102.679 93.5573C102.552 94.0005 102.489 94.5546 102.489 95.2195V101.488C102.489 101.932 102.529 102.288 102.608 102.557C102.703 102.826 102.829 103.032 102.988 103.174C103.146 103.317 103.336 103.412 103.558 103.459C103.779 103.507 104.025 103.53 104.294 103.53C104.42 103.53 104.555 103.53 104.697 103.53C104.84 103.53 104.998 103.523 105.172 103.507V105.834ZM116.501 96.0506C117.419 96.3988 118.045 96.9133 118.377 97.594C118.725 98.2748 118.9 99.2325 118.9 100.467C118.9 101.465 118.789 102.327 118.567 103.056C118.361 103.784 118.013 104.377 117.522 104.837C117.047 105.296 116.43 105.636 115.67 105.858C114.91 106.079 113.984 106.19 112.892 106.19C110.866 106.19 109.346 105.818 108.333 105.074C107.32 104.314 106.813 103.056 106.813 101.298V100.562C106.813 99.9132 106.955 99.3433 107.24 98.8526C107.525 98.3618 107.85 97.9265 108.214 97.5465C108.594 97.1508 108.958 96.7867 109.306 96.4542C109.655 96.106 109.892 95.7656 110.019 95.4332C110.098 95.2432 110.129 95.0532 110.114 94.8633C110.114 94.6733 110.05 94.5387 109.924 94.4596C109.734 94.3329 109.552 94.3488 109.378 94.5071C109.219 94.6654 109.1 94.9345 109.021 95.3144H107.43L105.388 92.2987H107.692L108.475 93.8897C108.538 93.3831 108.736 92.9794 109.069 92.6787C109.401 92.362 109.876 92.2037 110.494 92.2037C110.826 92.2037 111.143 92.2433 111.443 92.3225C111.76 92.3858 112.029 92.5045 112.251 92.6787C112.488 92.8528 112.67 93.0903 112.797 93.391C112.939 93.676 113.011 94.0322 113.011 94.4596C113.011 94.9028 112.939 95.3144 112.797 95.6944C112.654 96.0585 112.48 96.4067 112.274 96.7392C112.069 97.0716 111.839 97.3962 111.586 97.7128C111.333 98.0294 111.103 98.346 110.897 98.6626C110.691 98.9634 110.517 99.2721 110.375 99.5887C110.232 99.9053 110.161 100.246 110.161 100.61C110.161 101.069 110.201 101.48 110.28 101.845C110.359 102.209 110.494 102.517 110.684 102.771C110.889 103.008 111.166 103.198 111.515 103.341C111.879 103.467 112.338 103.53 112.892 103.53C113.43 103.53 113.873 103.459 114.222 103.317C114.57 103.174 114.847 102.969 115.053 102.699C115.259 102.414 115.401 102.066 115.48 101.655C115.559 101.243 115.599 100.768 115.599 100.23C115.599 99.7232 115.583 99.28 115.551 98.9001C115.52 98.5043 115.441 98.1719 115.314 97.9027C115.187 97.6178 114.982 97.3962 114.697 97.2379C114.427 97.0795 114.048 96.9687 113.557 96.9054V94.9108C114.016 94.8791 114.388 94.792 114.673 94.6496C114.974 94.5071 115.211 94.3171 115.385 94.0797C115.559 93.8422 115.678 93.5652 115.741 93.2486C115.821 92.9319 115.868 92.5837 115.884 92.2037H118.971C118.971 93.3277 118.781 94.1905 118.401 94.792C118.037 95.3936 117.404 95.8131 116.501 96.0506ZM127.411 105.834C127.046 105.913 126.698 105.968 126.366 106C126.049 106.016 125.733 106.024 125.416 106.024C124.086 106.008 123.081 105.668 122.4 105.003C121.72 104.322 121.379 103.206 121.379 101.655V92.2987H124.704V101.488C124.704 101.916 124.743 102.264 124.822 102.533C124.901 102.786 125.012 102.992 125.155 103.151C125.297 103.293 125.463 103.396 125.653 103.459C125.859 103.507 126.073 103.53 126.295 103.53C126.469 103.562 126.643 103.57 126.817 103.554C127.007 103.538 127.205 103.523 127.411 103.507V105.834ZM135.411 92.2037C137.516 92.2037 139.123 92.6549 140.231 93.5573C141.355 94.4596 141.917 95.8289 141.917 97.6653V106H138.569V98.1877C138.569 97.1904 138.316 96.3988 137.809 95.8131C137.303 95.2115 136.503 94.9108 135.411 94.9108C134.303 94.9108 133.495 95.2115 132.989 95.8131C132.482 96.3988 132.229 97.1904 132.229 98.1877V100.61C132.514 100.008 132.941 99.5412 133.511 99.2088C134.097 98.8763 134.714 98.7101 135.363 98.7101H136.337V101.346H135.316C134.952 101.346 134.58 101.401 134.2 101.512C133.836 101.607 133.503 101.757 133.203 101.963C132.918 102.169 132.68 102.422 132.49 102.723C132.316 103.008 132.229 103.341 132.229 103.72V103.697V106H128.881V97.6653C128.881 95.8289 129.443 94.4596 130.567 93.5573C131.691 92.6549 133.305 92.2037 135.411 92.2037ZM141.956 90.5415H130.107V88.3094H141.956V90.5415ZM156.393 106H153.069V100.135C152.135 100.182 151.304 100.238 150.576 100.301C149.847 100.349 149.23 100.444 148.723 100.586C148.233 100.728 147.853 100.926 147.584 101.18C147.33 101.417 147.204 101.742 147.204 102.153C147.204 102.644 147.378 102.992 147.726 103.198C148.074 103.404 148.541 103.507 149.127 103.507C149.491 103.538 149.903 103.515 150.362 103.436V105.81C149.412 106.016 148.526 106.111 147.702 106.095C147.18 106.079 146.681 105.992 146.206 105.834C145.731 105.676 145.312 105.446 144.948 105.145C144.6 104.829 144.323 104.441 144.117 103.982C143.911 103.523 143.808 102.984 143.808 102.367C143.808 101.401 144.045 100.641 144.52 100.087C144.995 99.5175 145.644 99.0821 146.468 98.7813C147.307 98.4806 148.288 98.2748 149.412 98.1639C150.536 98.0373 151.755 97.9265 153.069 97.8315C153.037 96.9292 152.784 96.2168 152.309 95.6944C151.85 95.172 151.066 94.9108 149.958 94.9108C149.357 94.9108 148.81 95.077 148.32 95.4094C147.845 95.726 147.504 96.1693 147.299 96.7392H144.093C144.204 96.0585 144.425 95.4411 144.758 94.887C145.106 94.3171 145.534 93.8343 146.04 93.4385C146.563 93.0428 147.156 92.742 147.821 92.5362C148.486 92.3146 149.198 92.2037 149.958 92.2037C152.032 92.2037 153.623 92.6707 154.731 93.6047C155.839 94.5387 156.393 96.0268 156.393 98.069V106Z" fill="black"/>
<defs>
<clipPath id="clip0_47_474">
<rect width="38" height="38" fill="white" transform="translate(83 37)"/>
</clipPath>
</defs>
</svg>
