<svg width="257" height="300" viewBox="0 0 257 300" fill="none" xmlns="http://www.w3.org/2000/svg">
<g clip-path="url(#clip0_44_416)">
<path d="M222.018 214.959L225.333 220.985L219.761 220.52L219.24 226.58L211.723 224.48L207.678 228.525L203.79 224.015L198.877 225.426L197.957 220.313L193.426 220.899L191.881 218.523" fill="white"/>
<path d="M222.018 214.959L225.333 220.985L219.761 220.52L219.24 226.58L211.723 224.48L207.678 228.525L203.79 224.015L198.877 225.426L197.957 220.313L193.426 220.899L191.881 218.523" stroke="black" stroke-linecap="round" stroke-linejoin="round"/>
<path d="M34.5137 208.038L30.4341 213.53L36.892 214.081L39.5654 220.899L50.6063 220.158L52.377 225.84L62.6193 225.547L66.4038 230.247L73.8164 227.871L78.764 232.399L85.1524 228.37L92.5998 233.57L99.0924 228.405L107.13 232.072L111.644 228.319L120.862 231.865L126.747 228.267L134.576 231.865L140.478 227.32L147.839 231.607L152.422 226.924L160.876 231.159L164.279 226.769L173.757 230.126L177.229 224.876L183.357 226.477L187.958 219.47" fill="white"/>
<path d="M34.5137 208.038L30.4341 213.53L36.892 214.081L39.5654 220.899L50.6063 220.158L52.377 225.84L62.6193 225.547L66.4038 230.247L73.8164 227.871L78.764 232.399L85.1524 228.37L92.5998 233.57L99.0924 228.405L107.13 232.072L111.644 228.319L120.862 231.865L126.747 228.267L134.576 231.865L140.478 227.32L147.839 231.607L152.422 226.924L160.876 231.159L164.279 226.769L173.757 230.126L177.229 224.876L183.357 226.477L187.958 219.47" stroke="black" stroke-linecap="round" stroke-linejoin="round"/>
<path d="M121 23.3793L139.61 37.0144L151.918 74.4248L154.158 88.3353L135.617 41.4045L115.949 23.8614L117.181 14.0483L121 23.3793Z" fill="black"/>
<path d="M206.064 201.204L222.105 215.028L206.151 222.551L197.28 217.077L172.49 223.292L74.667 223.929L34.583 208.107L46.1447 171.781L41.145 165.928L61.9422 109.959L60.4145 73.4263L48.089 51.0971L50.1027 12.3094L72.9484 21.4684L116.07 23.8097L135.739 41.3356L154.297 88.2837L145.721 34.9485L137.579 19.9017L187.437 20.5731L226.566 10.0025L216.567 40.888L211.827 96.0137L207.731 143.736L195.7 171.523L206.064 201.204Z" fill="white" stroke="black" stroke-linecap="round" stroke-linejoin="round"/>
<path d="M49.8249 12.2922L46.2314 8.00545L48.8701 0.430405L52.5504 4.941L60.1888 3.18497L64.8065 10.3985L73.1046 10.278L75.1704 14.4442L81.1248 10.9494L87.4091 15.4772L92.7559 11.9307L98.8319 16.4413L103.189 12.8087L108.258 17.2332L117.025 13.9794L115.793 23.7925L72.6706 21.4684L49.8249 12.2922Z" fill="white" stroke="black" stroke-linecap="round" stroke-linejoin="round"/>
<path d="M226.271 10.0197L221.445 2.34138L217.365 7.50619L212.991 3.52929L209.675 9.62376L205.752 5.4747L200.561 10.9838L196.586 7.50619L191.36 13.3941L187.888 9.05563L183.132 14.3926L179.052 9.58932L174.122 14.6853L169.331 10.6223L162.126 14.5303L157.63 9.62376L152.96 14.1688L146.572 8.69409L142.631 14.582L136.243 11.7069L137.302 19.9017L187.437 20.5731L226.271 10.0197Z" fill="white" stroke="black" stroke-linecap="round" stroke-linejoin="round"/>
<path d="M197.28 217.077L168.74 199.585C161.501 195.109 152.352 194.971 144.992 199.241L136.26 204.302" stroke="black" stroke-linecap="round" stroke-linejoin="round"/>
<path d="M195.301 142.704L188.826 152.637L195.7 171.523" stroke="black" stroke-linecap="round" stroke-linejoin="round"/>
<path d="M52.8281 161.658L135.982 134.732L177.976 135.146" stroke="black" stroke-linecap="round" stroke-linejoin="round"/>
</g>
<defs>
<clipPath id="clip0_44_416">
<rect width="197" height="234" fill="white" transform="translate(30)"/>
</clipPath>
</defs>
</svg>
