<svg width="257" height="300" viewBox="0 0 257 300" fill="none" xmlns="http://www.w3.org/2000/svg">
<g clip-path="url(#clip0_44_405)">
<path d="M208.413 116.951L219.38 137.854L200.518 144.746L209.936 178.263L162.77 185.129L136.166 209.364L84.1769 177.78L45.6672 174.474L33.6345 143.017L48.5358 134.777" fill="white"/>
<path d="M208.413 116.951L219.38 137.854L200.518 144.746L209.936 178.263L162.77 185.129L136.166 209.364L84.1769 177.78L45.6672 174.474L33.6345 143.017L48.5358 134.777" stroke="black" stroke-linecap="round" stroke-linejoin="round"/>
<path d="M60.1115 151.434L33.6345 113.314L60.1115 98.4119L41.6563 81.7041L78.9729 71.6592L57.6491 62.1991L86.0047 46.6358L195.264 68.7093L223.365 112.042L154.139 134.803" fill="white"/>
<path d="M60.1115 151.434L33.6345 113.314L60.1115 98.4119L41.6563 81.7041L78.9729 71.6592L57.6491 62.1991L86.0047 46.6358L195.264 68.7093L223.365 112.042L154.139 134.803" stroke="black" stroke-linecap="round" stroke-linejoin="round"/>
<path d="M78.9731 71.6592L126.52 77.4318" stroke="black" stroke-linecap="round" stroke-linejoin="round"/>
<path d="M83.2124 106.372V130.149L109.029 156.876" stroke="black" stroke-linecap="round" stroke-linejoin="round"/>
</g>
<defs>
<clipPath id="clip0_44_405">
<rect width="191" height="164" fill="white" transform="translate(33 46)"/>
</clipPath>
</defs>
</svg>
